<svg width="20" height="20" viewBox="0 0 20 20" fill="none" xmlns="http://www.w3.org/2000/svg">
<g clip-path="url(#clip0_3061_143)">
<path d="M0.81774 0.139688C0.631697 -0.0465626 0.329771 -0.0465626 0.143754 0.139688C-0.042466 0.325761 -0.042466 0.627736 0.143754 0.813782L4.25512 4.92508C2.55453 6.2446 1.13085 7.88662 0.0656466 9.75702C-0.0218822 9.90711 -0.0218822 10.0927 0.0656466 10.2428C2.2347 13.9064 4.99887 16.2147 8.06376 16.9215C8.69951 17.0683 9.34991 17.1423 10.0025 17.1423C11.7631 17.1175 13.4806 16.5921 14.9539 15.6272L19.1853 19.8603V19.8604C19.3716 20.0465 19.6733 20.0465 19.8595 19.8604C20.0457 19.6742 20.0457 19.3724 19.8595 19.1862L0.81774 0.139688ZM8.0189 8.68937L11.3134 11.9844H11.3136C10.6988 12.3858 9.93336 12.481 9.23919 12.2425C8.54479 12.0039 7.99944 11.4585 7.76094 10.7642C7.52263 10.0697 7.61778 9.3041 8.0191 8.68939L8.0189 8.68937ZM8.28078 15.9928C5.54419 15.3624 3.04365 13.292 1.03562 10H1.03579C2.03405 8.29292 3.35744 6.79833 4.93116 5.60108L7.34384 8.01433C6.69376 8.87292 6.50117 9.9936 6.82698 11.02C7.15299 12.0466 7.95705 12.8508 8.98329 13.1767C10.0095 13.5027 11.1302 13.3099 11.9887 12.6597L14.2664 14.9378H14.2662C12.4882 16.0648 10.337 16.4441 8.28064 15.9929L8.28078 15.9928ZM10.3499 7.65457L9.42146 6.72597C9.61282 6.68734 9.80736 6.66767 10.0025 6.66696C10.8862 6.66696 11.7339 7.01802 12.359 7.64324C12.9839 8.26825 13.3351 9.11605 13.3351 10.0001C13.3344 10.1953 13.3146 10.3898 13.2759 10.5811L12.3475 9.65246H12.3477C12.2729 9.14917 12.0383 8.6833 11.6786 8.32355C11.3189 7.96381 10.8531 7.72915 10.3499 7.65457ZM19.9342 9.75738V9.7572C20.0219 9.9073 20.0219 10.0928 19.9342 10.2429C19.096 11.6863 18.0573 13.0035 16.8493 14.155L16.1742 13.4788V13.479C17.2596 12.452 18.1999 11.2815 18.9687 10.0001C16.5321 6.00597 13.3565 3.80994 10.0022 3.80994C9.00502 3.82004 8.01878 4.02082 7.09709 4.40128L6.35911 3.66318C7.50319 3.14129 8.74453 2.8666 10.0021 2.85757C13.7745 2.85757 17.3013 5.30788 19.9339 9.75729L19.9342 9.75738Z" fill="black"/>
</g>
<defs>
<clipPath id="clip0_3061_143">
<rect width="20" height="20" fill="white"/>
</clipPath>
</defs>
</svg>
