<svg width="20" height="20" viewBox="0 0 20 20" fill="none" xmlns="http://www.w3.org/2000/svg">
<g clip-path="url(#clip0_1_651)">
<path d="M10 0.833336C9.33696 0.833336 8.70107 1.09673 8.23223 1.56557C7.76339 2.03441 7.5 2.67029 7.5 3.33334V10C7.5 10.663 7.76339 11.2989 8.23223 11.7678C8.70107 12.2366 9.33696 12.5 10 12.5C10.663 12.5 11.2989 12.2366 11.7678 11.7678C12.2366 11.2989 12.5 10.663 12.5 10V3.33334C12.5 2.67029 12.2366 2.03441 11.7678 1.56557C11.2989 1.09673 10.663 0.833336 10 0.833336V0.833336Z" stroke="#B8C1CC" stroke-width="2" stroke-linecap="round" stroke-linejoin="round"/>
<path d="M15.8334 8.33334V10C15.8334 11.5471 15.2188 13.0308 14.1249 14.1248C13.0309 15.2188 11.5472 15.8333 10.0001 15.8333C8.45299 15.8333 6.96925 15.2188 5.87529 14.1248C4.78133 13.0308 4.16675 11.5471 4.16675 10V8.33334" stroke="#B8C1CC" stroke-width="2" stroke-linecap="round" stroke-linejoin="round"/>
<path d="M10 15.8333V19.1667" stroke="#B8C1CC" stroke-width="2" stroke-linecap="round" stroke-linejoin="round"/>
<path d="M6.66675 19.1667H13.3334" stroke="#B8C1CC" stroke-width="2" stroke-linecap="round" stroke-linejoin="round"/>
</g>
<defs>
<clipPath id="clip0_1_651">
<rect width="20" height="20" fill="white"/>
</clipPath>
</defs>
</svg>
