<svg width="161" height="161" viewBox="0 0 161 161" fill="none" xmlns="http://www.w3.org/2000/svg">
<g clip-path="url(#clip0_33_218)">
<path d="M54.8626 161C62.5015 148.036 72.3679 137.327 85.8592 126.761C85.9811 126.66 86.1152 126.542 86.3081 126.41C90.7131 123.34 86.1045 120.937 82.0218 118.038C76.0406 113.804 70.8612 107.021 72.0797 105.984C73.5805 104.706 76.3351 112.408 87.8319 116.696C94.3823 119.137 95.9247 118.002 103.714 114.321C103.766 114.3 103.812 114.287 103.854 114.265C106.152 112.88 108.469 111.543 110.838 110.31C123.451 103.723 133.893 94.0525 137.996 86.6784L138.004 86.6845C151.819 63.418 145.577 38.1293 133.606 23.5771C132.459 22.1859 130.745 20.6049 129.78 19.6549C128.298 21.3284 126.487 24.2434 127.454 27.6876C129.066 33.4453 128.544 38.9329 125.458 42.4773C128.748 52.5274 125.344 64.092 117.698 70.7103C113.747 73.2522 109.689 74.9719 104.328 75.049C91.9733 75.2247 83.168 70.2275 72.339 65.7393C61.3698 61.1939 49.7048 58.9776 37.8256 59.3601C24.6709 59.7834 10.7728 64.0813 -1.66015e-05 72.1139V20.1469C-1.66015e-05 9.02026 9.00105 0.000488281 20.1464 0.000488281H140.854C151.98 0.000488281 161 9.00155 161 20.1469V140.854C161 151.981 151.999 161 140.854 161H54.8629L54.8626 161ZM-0.000331055 134.292V129.505C2.15525 129.516 4.51129 129.292 7.08273 128.799C25.1499 125.329 33.9322 112.535 33.9322 112.535C36.9737 108.727 38.0318 110.716 36.3891 113.645C34.6447 116.765 27.4002 128.648 9.41157 133.144C6.18622 133.951 3.01983 134.327 -0.000488281 134.292H-0.000331055ZM56.2796 87.6373C54.6986 90.1559 51.381 90.9133 48.8608 89.3308C46.3468 87.753 45.5803 84.4323 47.1612 81.9136C48.7437 79.3919 52.069 78.6345 54.5831 80.2124C57.1048 81.7949 57.862 85.1156 56.2796 87.6373ZM109.951 34.2885C114.942 48.5769 126.917 42.3257 124.317 28.7267C122.913 21.3835 126.531 17.3811 126.531 17.3811C114.085 12.592 106.311 23.8667 109.951 34.2885Z" fill="#1A6FEE"/>
</g>
<defs>
<clipPath id="clip0_33_218">
<rect width="161" height="161" fill="white"/>
</clipPath>
</defs>
</svg>
